<svg width="24" height="24" viewBox="0 0 24 24" fill="none" xmlns="http://www.w3.org/2000/svg">
<path fill-rule="evenodd" clip-rule="evenodd" d="M21 7V19.5C21 20.3284 20.3284 21 19.5 21H4.5C3.67157 21 3 20.3284 3 19.5V7H21ZM12.2248 9C10.6702 9 9.46253 10.1949 9.46253 11.7366C9.46253 13.1884 10.5546 14.3833 12.1092 14.4218C12.2634 14.4218 12.379 14.409 12.5332 14.3833L9 18.2248H15V17.197H11.3126L13.4197 14.8587C14.5246 13.6638 15 12.8158 15 11.7366C15 10.1949 13.7794 9 12.2248 9ZM12.2248 10.015C13.2013 10.015 13.9079 10.7602 13.9079 11.7366C13.9079 12.7259 13.2013 13.4582 12.2248 13.4582C11.2355 13.4582 10.5546 12.7259 10.5546 11.7366C10.5546 10.7602 11.2355 10.015 12.2248 10.015Z" fill="#70C5A1"/>
<path opacity="0.3" fill-rule="evenodd" clip-rule="evenodd" d="M5 3H19C19.5523 3 20 3.44772 20 4V7H4V4C4 3.44772 4.44772 3 5 3Z" fill="#E9B80E"/>
<path fill-rule="evenodd" clip-rule="evenodd" d="M7 6C6.44772 6 6 5.55228 6 5C6 4.44772 6.44772 4 7 4C7.55228 4 8 4.44772 8 5C8 5.55228 7.55228 6 7 6ZM17 6C16.4477 6 16 5.55228 16 5C16 4.44772 16.4477 4 17 4C17.5523 4 18 4.44772 18 5C18 5.55228 17.5523 6 17 6Z" fill="white"/>
</svg>
