<svg width="24" height="24" viewBox="0 0 24 24" fill="none" xmlns="http://www.w3.org/2000/svg">
<path fill-rule="evenodd" clip-rule="evenodd" d="M11.8527 8H11.9299C12.1647 8 12.3613 8.17287 12.3847 8.39987L12.8006 12.4406L15.7697 14.0889C15.9121 14.168 16 14.3151 16 14.4745V14.6608C16 14.8481 15.8437 15 15.6509 15C15.6199 15 15.589 14.996 15.559 14.988L11.3368 13.8693C11.1253 13.8132 10.9845 13.6192 11.0014 13.4068L11.397 8.41C11.4153 8.17865 11.6139 8 11.8527 8Z" fill="#70C5A1"/>
<path d="M12 21C7.02944 21 3 16.9706 3 12C3 7.02944 7.02944 3 12 3C16.9706 3 21 7.02944 21 12C21 16.9706 16.9706 21 12 21ZM12 19.2C15.9765 19.2 19.2 15.9765 19.2 12C19.2 8.02355 15.9765 4.8 12 4.8C8.02355 4.8 4.8 8.02355 4.8 12C4.8 15.9765 8.02355 19.2 12 19.2Z" fill="#70C5A1"/>
</svg>
