<svg width="24" height="24" viewBox="0 0 24 24" fill="none" xmlns="http://www.w3.org/2000/svg">
<path d="M18.0001 13.0001C18.5523 13.0001 19.0001 12.5524 19.0001 12.0001C19.0001 11.4478 18.5523 11.0001 18.0001 11.0001L6.00006 11.0001C5.44778 11.0001 5.00006 11.4478 5.00006 12.0001C5.00006 12.5524 5.44778 13.0001 6.00006 13.0001L18.0001 13.0001Z" fill="#FFF4CE"/>
<path d="M12.707 6.70723C13.0976 6.3167 13.0976 5.68354 12.707 5.29302C12.3165 4.90249 11.6834 4.90249 11.2928 5.29302L5.29283 11.293C4.91425 11.6716 4.90101 12.2812 5.26279 12.6758L10.7628 18.6758C11.136 19.083 11.7685 19.1105 12.1757 18.7373C12.5828 18.3641 12.6103 17.7315 12.2371 17.3244L7.38408 12.0302L12.707 6.70723Z" fill="white"/>
</svg>
