<svg width="16" height="16" viewBox="0 0 16 16" fill="none" xmlns="http://www.w3.org/2000/svg">
<path d="M4 7.33333C3.63181 7.33333 3.33334 7.63181 3.33334 8C3.33334 8.36819 3.63181 8.66666 4 8.66666H12C12.3682 8.66666 12.6667 8.36819 12.6667 8C12.6667 7.63181 12.3682 7.33333 12 7.33333H4Z" fill="#70C5A1"/>
<path d="M7.52859 11.5286C7.26824 11.7889 7.26824 12.2111 7.52859 12.4714C7.78894 12.7318 8.21105 12.7318 8.4714 12.4714L12.4714 8.4714C12.7238 8.21902 12.7326 7.81263 12.4914 7.54951L8.82477 3.54952C8.57597 3.2781 8.15426 3.25977 7.88285 3.50856C7.61143 3.75736 7.5931 4.17907 7.84189 4.45048L11.0772 7.97995L7.52859 11.5286Z" fill="#70C5A1"/>
</svg>
