<svg width="16" height="16" viewBox="0 0 16 16" fill="none" xmlns="http://www.w3.org/2000/svg">
<path d="M12 8.66667C12.3682 8.66667 12.6667 8.36819 12.6667 8C12.6667 7.63181 12.3682 7.33334 12 7.33334L4 7.33334C3.63181 7.33334 3.33333 7.63181 3.33333 8C3.33333 8.36819 3.63181 8.66667 4 8.66667L12 8.66667Z" fill="#70C5A1"/>
<path d="M8.47141 4.4714C8.73176 4.21105 8.73176 3.78894 8.47141 3.52859C8.21106 3.26824 7.78895 3.26824 7.5286 3.52859L3.5286 7.52859C3.27621 7.78098 3.26738 8.18737 3.50857 8.45048L7.17523 12.4505C7.42403 12.7219 7.84574 12.7402 8.11715 12.4914C8.38856 12.2426 8.4069 11.8209 8.15811 11.5495L4.92276 8.02005L8.47141 4.4714Z" fill="#70C5A1"/>
</svg>
