<svg width="24" height="24" viewBox="0 0 24 24" fill="none" xmlns="http://www.w3.org/2000/svg">
<path fill-rule="evenodd" clip-rule="evenodd" d="M18 4.68421C18 3.75405 17.2325 3 16.2857 3H7.71429C6.76751 3 6 3.75405 6 4.68421V19H10.7143V16.4737C10.7143 16.0086 11.098 15.6316 11.5714 15.6316H12.4286C12.902 15.6316 13.2857 16.0086 13.2857 16.4737V19H18V4.68421ZM9.42857 11.4211H10.2857C10.7591 11.4211 11.1429 11.7981 11.1429 12.2632V13.1053C11.1429 13.5703 10.7591 13.9474 10.2857 13.9474H9.42857C8.95518 13.9474 8.57143 13.5703 8.57143 13.1053V12.2632C8.57143 11.7981 8.95518 11.4211 9.42857 11.4211ZM13.7143 11.4211H14.5714C15.0448 11.4211 15.4286 11.7981 15.4286 12.2632V13.1053C15.4286 13.5703 15.0448 13.9474 14.5714 13.9474H13.7143C13.2409 13.9474 12.8571 13.5703 12.8571 13.1053V12.2632C12.8571 11.7981 13.2409 11.4211 13.7143 11.4211ZM9.42857 8.05263H10.2857C10.7591 8.05263 11.1429 8.42965 11.1429 8.89474V9.73684C11.1429 10.2019 10.7591 10.5789 10.2857 10.5789H9.42857C8.95518 10.5789 8.57143 10.2019 8.57143 9.73684V8.89474C8.57143 8.42965 8.95518 8.05263 9.42857 8.05263ZM9.42857 4.68421H10.2857C10.7591 4.68421 11.1429 5.06123 11.1429 5.52632V6.36842C11.1429 6.8335 10.7591 7.21053 10.2857 7.21053H9.42857C8.95518 7.21053 8.57143 6.8335 8.57143 6.36842V5.52632C8.57143 5.06123 8.95518 4.68421 9.42857 4.68421ZM13.7143 4.68421H14.5714C15.0448 4.68421 15.4286 5.06123 15.4286 5.52632V6.36842C15.4286 6.8335 15.0448 7.21053 14.5714 7.21053H13.7143C13.2409 7.21053 12.8571 6.8335 12.8571 6.36842V5.52632C12.8571 5.06123 13.2409 4.68421 13.7143 4.68421ZM13.7143 8.05263H14.5714C15.0448 8.05263 15.4286 8.42965 15.4286 8.89474V9.73684C15.4286 10.2019 15.0448 10.5789 14.5714 10.5789H13.7143C13.2409 10.5789 12.8571 10.2019 12.8571 9.73684V8.89474C12.8571 8.42965 13.2409 8.05263 13.7143 8.05263Z" fill="#70C5A1"/>
<path fill-rule="evenodd" clip-rule="evenodd" d="M4.88889 19H19.1111C19.602 19 20 19.4477 20 20V20.4C20 20.7314 19.7612 21 19.4667 21H4.53333C4.23878 21 4 20.7314 4 20.4V20C4 19.4477 4.39797 19 4.88889 19Z" fill="#70C5A1"/>
</svg>
