<svg width="32" height="32" viewBox="0 0 32 32" fill="none" xmlns="http://www.w3.org/2000/svg">
<path fill-rule="evenodd" clip-rule="evenodd" d="M10.6219 4H21.3781C22.432 4 23.3869 4.62062 23.8149 5.58363L26.6667 12H5.33333L8.18505 5.58363C8.61306 4.62062 9.56805 4 10.6219 4Z" fill="#F3E1A2"/>
<path fill-rule="evenodd" clip-rule="evenodd" d="M28 13.3333C28.7364 13.3333 29.3333 13.9303 29.3333 14.6667V21.3333C29.3333 22.0697 28.7364 22.6667 28 22.6667H4C3.26362 22.6667 2.66667 22.0697 2.66667 21.3333V14.6667C2.66667 13.9303 3.26362 13.3333 4 13.3333H28ZM9.33333 15.3333C7.86057 15.3333 6.66667 16.5272 6.66667 18C6.66667 19.4728 7.86057 20.6667 9.33333 20.6667C10.8061 20.6667 12 19.4728 12 18C12 16.5272 10.8061 15.3333 9.33333 15.3333ZM22.6667 15.3333C21.1939 15.3333 20 16.5272 20 18C20 19.4728 21.1939 20.6667 22.6667 20.6667C24.1394 20.6667 25.3333 19.4728 25.3333 18C25.3333 16.5272 24.1394 15.3333 22.6667 15.3333Z" fill="#70C5A1"/>
<path fill-rule="evenodd" clip-rule="evenodd" d="M11.9334 23.9995C11.6248 25.5213 10.2795 26.6668 8.66664 26.6668C7.05378 26.6668 5.70846 25.5213 5.39986 23.9995H11.9334Z" fill="#F3E1A2"/>
<path fill-rule="evenodd" clip-rule="evenodd" d="M26.5998 23.9995C26.2912 25.5213 24.9459 26.6668 23.3331 26.6668C21.7202 26.6668 20.3749 25.5213 20.0663 23.9995H26.5998Z" fill="#F3E1A2"/>
</svg>
