<svg width="32" height="32" viewBox="0 0 32 32" fill="none" xmlns="http://www.w3.org/2000/svg">
<path d="M16 24C16.7364 24 17.3334 24.5969 17.3334 25.3333V28C17.3334 28.7364 16.7364 29.3333 16 29.3333C15.2636 29.3333 14.6667 28.7364 14.6667 28V25.3333C14.6667 24.5969 15.2636 24 16 24ZM28 14.6667C28.7364 14.6667 29.3334 15.2636 29.3334 16C29.3334 16.7364 28.7364 17.3333 28 17.3333H25.3334C24.597 17.3333 24 16.7364 24 16C24 15.2636 24.597 14.6667 25.3334 14.6667H28ZM6.66669 14.6667C7.40307 14.6667 8.00002 15.2636 8.00002 16C8.00002 16.7364 7.40307 17.3333 6.66669 17.3333H4.00002C3.26364 17.3333 2.66669 16.7364 2.66669 16C2.66669 15.2636 3.26364 14.6667 4.00002 14.6667H6.66669ZM16 2.66666C16.7364 2.66666 17.3334 3.26361 17.3334 3.99999V6.66666C17.3334 7.40304 16.7364 7.99999 16 7.99999C15.2636 7.99999 14.6667 7.40304 14.6667 6.66666V3.99999C14.6667 3.26361 15.2636 2.66666 16 2.66666Z" fill="#FFF4CE"/>
<path d="M16 18.6667C17.4727 18.6667 18.6666 17.4728 18.6666 16C18.6666 14.5273 17.4727 13.3333 16 13.3333C14.5272 13.3333 13.3333 14.5273 13.3333 16C13.3333 17.4728 14.5272 18.6667 16 18.6667Z" fill="#FFF4CE"/>
<path d="M16 22.6667C19.6819 22.6667 22.6667 19.6819 22.6667 16C22.6667 12.3181 19.6819 9.33332 16 9.33332C12.3181 9.33332 9.33335 12.3181 9.33335 16C9.33335 19.6819 12.3181 22.6667 16 22.6667ZM16 25.3333C10.8454 25.3333 6.66669 21.1546 6.66669 16C6.66669 10.8453 10.8454 6.66666 16 6.66666C21.1547 6.66666 25.3334 10.8453 25.3334 16C25.3334 21.1546 21.1547 25.3333 16 25.3333Z" fill="white"/>
</svg>
