<svg width="24" height="24" viewBox="0 0 24 24" fill="none" xmlns="http://www.w3.org/2000/svg">
<path d="M5.99994 10.9999C5.44765 10.9999 4.99994 11.4476 4.99994 11.9999C4.99994 12.5522 5.44765 12.9999 5.99994 12.9999H17.9999C18.5522 12.9999 18.9999 12.5522 18.9999 11.9999C18.9999 11.4476 18.5522 10.9999 17.9999 10.9999H5.99994Z" fill="#FFF4CE"/>
<path d="M11.293 17.2928C10.9024 17.6833 10.9024 18.3165 11.293 18.707C11.6835 19.0975 12.3166 19.0975 12.7072 18.707L18.7072 12.707C19.0857 12.3284 19.099 11.7188 18.7372 11.3242L13.2372 5.32415C12.864 4.91704 12.2315 4.88953 11.8243 5.26272C11.4172 5.63592 11.3897 6.26848 11.7629 6.6756L16.6159 11.9698L11.293 17.2928Z" fill="white"/>
</svg>
