<svg width="24" height="24" viewBox="0 0 24 24" fill="none" xmlns="http://www.w3.org/2000/svg">
<path fill-rule="evenodd" clip-rule="evenodd" d="M11.9149 14.1427L14.1189 11.9387C14.7276 11.33 14.8785 10.4001 14.4935 9.63008L14.3686 9.38032C13.9836 8.61034 14.1346 7.6804 14.7433 7.07168L17.4761 4.33888C17.6713 4.14361 17.9879 4.14361 18.1832 4.33888C18.2212 4.37688 18.2528 4.42075 18.2768 4.46882L19.3808 6.67677C20.2254 8.36588 19.8943 10.4059 18.559 11.7413L12.5601 17.7401C11.1066 19.1936 8.95658 19.7012 7.00646 19.0511L4.59198 18.2463C4.33 18.159 4.18842 17.8758 4.27575 17.6139C4.30029 17.5402 4.34165 17.4733 4.39654 17.4184L7.04781 14.7671C7.65653 14.1584 8.58647 14.0075 9.35645 14.3925L9.60621 14.5174C10.3762 14.9024 11.3061 14.7515 11.9149 14.1427Z" fill="#70C5A1"/>
</svg>
